<svg viewBox="0 0 4000.22 2258.62" xmlns="http://www.w3.org/2000/svg" xmlns:xlink="http://www.w3.org/1999/xlink" id="Calque_2" overflow="hidden"><defs></defs><path d="M0 0 0 2258.62 4000.22 2258.62 4000.22 0 0 0ZM3432.18 192.67C3432.23 176.66 3428.79 157.51 3455.11 157.07 3483.96 156.59 3479.03 177.44 3479.1 194.27 3479.46 283.86 3480.31 373.47 3478.75 463.04 3478.23 492.97 3487.99 502.87 3518.01 502.49 3626.4 501.1 3734.83 502.09 3843.24 501.74 3852.84 501.71 3866.85 506.93 3870.77 494.76 3873.67 485.76 3861.78 479.38 3855.03 473.29 3781.08 406.51 3692.55 373.61 3594.88 362.26 3582.46 360.82 3570 359.34 3557.52 358.78 3541.77 358.07 3531.77 352.8 3532.06 334.79 3532.37 315.85 3543.96 312.96 3559.17 313.36 3622.34 315.03 3683.38 327.22 3742.02 350.69 3828.43 385.28 3899.36 439.77 3952.72 516.4 3957.97 523.94 3967.35 532.06 3963.42 541.11 3958.52 552.39 3945.33 549.06 3935.32 549.09 3856.1 549.33 3776.87 549.22 3697.65 549.21 3620.51 549.19 3543.36 548.52 3466.24 549.57 3440.37 549.92 3431.48 539.98 3431.67 514.59 3432.51 407.29 3431.86 299.98 3432.19 192.68ZM3871.25 871.7C3839.56 845.32 3868.84 822.46 3874.7 798.7 3878.04 785.16 3890.99 778.22 3903.04 777.74 3919.26 777.09 3913.3 792.63 3914.52 801.57 3916.05 812.82 3920.25 819.53 3930.89 825.41 3948.23 834.99 3946.75 846.4 3930.09 857.69 3908.82 872.1 3906.87 936.4 3928.1 947.36 3939.1 953.04 3945.86 957.7 3943.26 969.87 3940.04 984.96 3926.64 982.87 3916.82 984.63 3889.71 984.7 3874.2 973.08 3873.41 945.87 3872.9 928.22 3873.14 910.55 3872.85 892.9 3872.73 885.64 3875.05 874.87 3871.25 871.7ZM3755.09 604.74C3753.61 624.57 3744.38 636.92 3726.67 638.44 3706.87 640.14 3694.81 628.18 3694.41 608.73 3694.04 590.77 3705.19 579.2 3723.34 578.49 3741.66 577.78 3751.16 589.55 3755.09 604.74ZM2765.06 204.96C2783.1 205.18 2792.92 214.68 2793.94 231.52 2794.98 248.73 2784.81 259.74 2768.32 260.96 2749.95 262.32 2738.4 251.18 2737.98 232.95 2737.58 215.84 2748.96 207.12 2765.07 204.96ZM2685.9 205.52C2702.9 205.79 2712.7 216.63 2712.67 233.44 2712.64 250.49 2701.53 258.92 2686.85 261.88 2668.87 260.09 2657.52 251.59 2657.12 234.71 2656.69 216.55 2667.39 205.23 2685.91 205.52ZM2441.55 764.04C2455.08 763.55 2463.9 767.89 2463.91 782.99 2464.1 795.58 2458.28 802.35 2445.3 802.62 2432.06 802.9 2423.01 798.94 2422.95 783.57 2422.9 770.76 2428.63 764.5 2441.55 764.03ZM2422.61 846.65C2422.64 833.2 2428.45 825.33 2443.03 825.13 2457.45 824.93 2464.04 832.33 2464.27 845.85 2464.6 865.51 2464.36 885.17 2464.36 904.83 2464.39 904.83 2464.43 904.83 2464.46 904.83 2464.46 923.46 2464.69 942.09 2464.38 960.71 2464.16 973.93 2458.43 982.08 2443.72 982.12 2429.49 982.15 2422.6 975.51 2422.58 961.52 2422.54 923.23 2422.52 884.94 2422.6 846.65ZM1759.04 191.8C1759.07 175.45 1756.21 156.62 1782.62 157.3 1809.21 157.99 1804.66 177.78 1804.75 193.41 1805.23 281.92 1804.9 370.43 1805.11 458.94 1805.21 500.61 1806.41 501.85 1846.5 501.91 1953.82 502.06 2061.14 502.11 2168.46 501.68 2177.9 501.64 2191.84 507.09 2195.64 494.08 2198.46 484.43 2186.92 478.5 2180.14 472.43 2098.09 399.03 1999.58 367.49 1891.84 359.06 1880.22 358.15 1865.77 361.56 1859.62 346.03 1851.54 325.65 1862.65 312.38 1889.6 313.64 2026.32 320.01 2145.7 366.57 2240.59 468 2275.84 505.68 2294.24 503.72 2319.78 457.31 2339.37 421.71 2343.92 382.3 2346.42 342.64 2347.49 325.62 2349.75 311.36 2372.5 313.06 2394.99 314.74 2392.21 330.89 2391.69 345.04 2389.88 394.52 2380.61 442.32 2355.82 485.93 2332.27 527.35 2296.97 549.32 2248.56 549.2 2173.54 549.02 2098.52 549.15 2023.5 549.18 1947.44 549.21 1871.37 548.5 1795.32 549.59 1768.78 549.97 1758.19 541.13 1758.47 513.56 1759.56 406.32 1758.82 299.05 1759.03 191.8ZM2386.97 600.74C2385.26 618.85 2376.09 631.22 2357.81 631.54 2338.26 631.88 2326.2 619.63 2326.27 600.25 2326.34 581.96 2338.64 571.28 2356.62 571.33 2374.87 571.37 2384.59 582.99 2386.97 600.74ZM2081.31 608.29C2080.75 627.51 2068.29 639.43 2048.81 638.5 2030.59 637.63 2020.69 625.25 2021.34 607.09 2022.01 588.41 2034.69 580.41 2050.15 577.56 2069.48 580.64 2081.84 590.1 2081.3 608.28ZM1574.22 205.09C1592.22 205.26 1602.19 214.28 1603.08 231.34 1603.97 248.35 1594.51 259.6 1577.85 260.87 1559.55 262.26 1547.96 251.58 1547.53 233.23 1547.13 216.15 1558.41 207.49 1574.22 205.1ZM1496.17 205.59C1513.57 206.3 1520.63 218.33 1522.46 232.91 1519.69 250.87 1510.49 261.54 1493.69 261.06 1477.31 260.59 1466.1 250.48 1466.34 233.6 1466.6 215.52 1477.72 204.83 1496.16 205.58ZM1306.08 520.08C1309.07 510.16 1312.84 500.27 1317.74 491.16 1369.48 395.09 1451.43 339.11 1556.18 315.28 1590.99 307.36 1597.15 313.81 1597.54 348.66 1598.01 390.32 1597.67 431.98 1597.93 473.65 1597.97 480.73 1596.48 489.25 1603.96 493.52 1613.14 498.76 1619.72 491.32 1625.95 486.34 1642.77 472.91 1652.58 454.62 1659.9 434.81 1670.85 405.16 1674.65 374.15 1676.57 342.91 1677.62 325.87 1679.66 311.6 1702.41 313.05 1724.87 314.48 1721.66 330.41 1722.07 344.73 1722.16 347.85 1722.08 350.97 1722.08 352.24 1717.95 400.15 1709.73 445.07 1686.23 485.71 1664.45 523.4 1632.47 545.51 1588.17 548.99 1563.8 550.9 1551.1 543.5 1552.24 516.22 1553.8 478.79 1552.71 441.24 1552.51 403.75 1552.3 363.85 1546.43 359.28 1508.8 375.51 1441.33 404.61 1390.79 452.59 1356.84 517.82 1353 525.2 1350.72 533.62 1345.85 540.19 1336.88 552.29 1323.41 550.57 1311.6 546.53 1297.05 541.55 1303.22 529.53 1306.07 520.08ZM1072.22 841.76C1045.23 990.08 964.46 1109.24 859.39 1212.63 778.62 1292.12 683.76 1352.85 582.39 1403.4 566.84 1411.15 552.68 1415.38 535.23 1406.84 366.46 1324.22 222.05 1213.05 117.56 1054.41 46.7 946.83 22.15 827.17 23.99 700.39 25.16 537.03 61.1 380.36 115.2 227.14 121.63 208.93 128.26 198.88 150.94 209.37 282.43 270.19 407.21 246.82 525.78 173.85 549.82 159.06 566.17 159.06 590.21 172.91 708.86 241.22 832.8 265.71 963.85 208.88 978.05 202.72 985.06 206.92 989.78 220.38 1060.51 421.8 1111.45 626.07 1072.21 841.76ZM1463.88 1189.33C1463.29 1228.89 1464.44 1268.65 1460.84 1307.95 1456.99 1350.05 1429.41 1369 1380.93 1368.29 1332.6 1367.58 1306.12 1347.39 1302.2 1305.87 1300.25 1285.23 1301.86 1264.26 1301.86 1243.43 1301.49 1243.43 1301.11 1243.43 1300.74 1243.43 1300.74 1222.59 1300.65 1201.76 1300.77 1180.92 1300.85 1166.6 1308.55 1160.19 1322.56 1160.75 1335.57 1161.27 1340.95 1168.78 1341.04 1181.03 1341.25 1210.2 1341.18 1239.38 1341.71 1268.55 1341.92 1279.95 1342.21 1291.6 1344.62 1302.67 1349.11 1323.25 1364.26 1331.2 1384.04 1330.85 1404.7 1330.48 1418.51 1319.96 1419.5 1298.99 1421.22 1262.59 1421.1 1226.1 1421.37 1189.65 1421.49 1173.75 1423.09 1159.81 1444.15 1160.48 1464 1161.11 1464.08 1175.43 1463.87 1189.32ZM1468.66 800.9C1428.67 795.6 1425.1 818.77 1426.56 849.84 1428.22 885.2 1426.69 920.7 1426.84 956.14 1426.9 971.65 1423.18 982.34 1404.32 982.24 1385.43 982.14 1381.82 970.96 1381.78 955.79 1381.66 916.18 1380.73 876.55 1381.69 836.97 1382.28 812.75 1375.32 799.24 1348.22 801.25 1334.09 802.3 1316.38 803.86 1317.58 781.14 1318.65 760.86 1335.13 764.1 1348.15 763.75 1366.91 763.25 1385.69 763.62 1404.47 763.62 1404.47 763.71 1404.47 763.8 1404.47 763.9 1425.33 763.9 1446.19 763.83 1467.04 763.92 1479.98 763.98 1489.51 767.71 1489.18 783.4 1488.89 797.4 1480.06 802.4 1468.66 800.89ZM1485.93 949.67C1478.96 921.56 1495.43 900.17 1531.56 890.76 1541.64 888.13 1551.93 886.29 1562.02 883.72 1570.21 881.63 1579.45 879.24 1577.82 868.13 1576.1 856.4 1566.12 854.87 1556.43 854.12 1543.79 853.14 1535.66 862.12 1525.7 867.48 1515.97 872.71 1503.67 871.7 1496.68 863.47 1487.64 852.83 1497.93 843.92 1504.93 836.95 1519.23 822.72 1537.94 820.34 1557.15 820.63 1607.06 820.31 1622.09 835.25 1623.1 885.38 1623.6 910.34 1622.75 935.59 1626.34 960.15 1629.91 984.63 1615.25 986 1601.02 981 1585.23 975.44 1572.49 976.25 1556.93 981.28 1523.02 992.24 1492.85 977.59 1485.93 949.66ZM1640.2 1334.9C1640.02 1348.56 1640.63 1363.55 1620.31 1363.02 1599.77 1362.48 1602.27 1346.67 1601.7 1333.57 1600.89 1314.89 1601.39 1296.15 1600.24 1277.5 1599.31 1262.57 1596.56 1246.75 1577.25 1246.04 1556.16 1245.26 1548.26 1260.09 1546.87 1278.33 1545.45 1296.94 1545.98 1315.7 1545.43 1334.39 1545.03 1347.92 1546.4 1363.01 1526.2 1363.36 1504.39 1363.74 1505.09 1347.65 1504.67 1332.96 1504.26 1318.42 1504.58 1303.87 1504.58 1289.32L1504.47 1289.32C1504.47 1279.97 1504.43 1270.62 1504.47 1261.26 1504.69 1218.38 1504.65 1218.83 1547.43 1222.74 1554.99 1223.43 1563.03 1218.52 1570.89 1216.35 1611.94 1204.99 1638.69 1224.02 1640.11 1266.32 1640.88 1289.15 1640.49 1312.04 1640.19 1334.89ZM1652.33 594.98C1653.19 578.03 1664.52 569.01 1681.06 569.35 1698.18 569.7 1706.05 581.04 1708.35 595.71 1705.9 613.5 1696.96 624.68 1680.37 624.54 1662.54 624.39 1651.4 613.43 1652.33 594.99ZM1682.64 641.28C1699.27 641.68 1708.01 653.24 1709.56 669.82 1707.41 686.41 1698.45 697.52 1681.69 697.6 1665.16 697.68 1654 687.47 1653.72 670.55 1653.42 652.29 1664.54 640.84 1682.64 641.28ZM1719.44 1344.63C1719.06 1356.78 1712.43 1363.67 1699.5 1363.63 1686.57 1363.59 1679.84 1356.68 1679.7 1344.51 1679.29 1308.06 1679.36 1271.6 1679.67 1235.15 1679.78 1222.58 1686.98 1216.32 1699.63 1216.33 1712.35 1216.33 1719.21 1222.77 1719.48 1235.28 1719.86 1252.98 1719.58 1270.69 1719.58 1288.4 1719.58 1307.15 1720.01 1325.91 1719.42 1344.64ZM1679.93 1177.99C1679.96 1164.67 1687.72 1159.97 1699.78 1159.94 1712.13 1159.91 1719.2 1165.44 1719.26 1178.32 1719.2 1191.63 1711.58 1196.42 1699.39 1196.38 1687.05 1196.34 1679.9 1191.06 1679.92 1177.99ZM1670.03 968.59C1661.17 962.23 1648.91 952.16 1657.16 940.68 1665.72 928.76 1681.76 928.29 1693.24 938.34 1705.06 948.7 1717.03 954.78 1732.71 952.28 1740.16 951.1 1747.69 948.98 1749.05 940.41 1750.52 931.11 1743.01 927.93 1735.92 925.74 1722.99 921.74 1709.86 918.42 1696.89 914.55 1671.74 907.04 1652.47 893.52 1656.08 863.99 1659.78 833.67 1682.38 823.89 1709.35 821.03 1714.5 820.48 1719.75 820.95 1724.96 820.95 1741.94 820.59 1758.51 822.8 1772.21 833.68 1780.19 840.02 1790.96 848.57 1784 859.21 1777.52 869.11 1763.71 870.79 1752.88 865.17 1741.87 859.46 1732.53 850.61 1718.82 851.96 1711.35 852.7 1702.94 853.46 1701.24 861.85 1699.39 871 1707.71 873.97 1714.68 876.12 1730.59 881.02 1746.89 884.76 1762.61 890.21 1781.59 896.79 1795.58 908.73 1795.95 930.66 1796.33 952.86 1785.22 969.25 1765.19 977.06 1732.57 989.79 1699.76 989.94 1670.04 968.59ZM1880.22 1250.75C1869.57 1281.05 1856.8 1310.61 1845.01 1340.52 1839.82 1353.69 1833.8 1364.31 1816.49 1363.99 1798.95 1363.66 1794.04 1351.76 1788.89 1339.07 1776.41 1308.32 1763.59 1277.7 1751.83 1246.68 1748.26 1237.25 1737.19 1224.21 1753.85 1217.73 1769.02 1211.83 1782.16 1217.38 1788.48 1234.45 1796.58 1256.36 1805.34 1278.02 1817.08 1308.17 1828.31 1279.72 1836.74 1260.09 1843.79 1239.96 1849.68 1223.15 1859.44 1210.91 1877.91 1217.41 1899.64 1225.06 1883.9 1240.24 1880.21 1250.75ZM1873.4 982.62C1833.6 972.69 1812.48 921.84 1826.86 870.75 1838.13 830.71 1870.73 811.84 1911.42 825.59 1931.66 832.43 1935.48 826.52 1934.4 808.73 1934.02 802.51 1934.68 796.23 1934.5 789.98 1934.05 774.38 1938.12 763.59 1957 764.12 1974.17 764.6 1977.68 774.96 1977.68 788.95 1977.68 817.08 1977.68 845.22 1977.73 873.35 1977.78 900.44 1977.15 927.55 1977.96 954.62 1978.71 979.6 1965.1 988.58 1944.93 979.48 1931.14 973.26 1921.9 975.79 1910.29 980.59 1898.43 985.5 1885.87 985.72 1873.4 982.61ZM2022.38 1301.58C2007.79 1301.55 1993.16 1301.25 1978.61 1302.12 1968.95 1302.7 1956.26 1298.23 1951.87 1311.77 1949.37 1319.47 1954.81 1325.79 1960.86 1330.3 1971.07 1337.9 1982.2 1339.61 1992.45 1331.05 2000.58 1324.27 2007.55 1317.59 2019.79 1319.64 2037.36 1322.58 2041.92 1329.92 2030.65 1344.51 2017.42 1361.65 1998.83 1367.06 1978.18 1367.56 1930.56 1368.11 1901.79 1334.15 1906.07 1282.44 1910.06 1234.35 1942.86 1207.15 1988.11 1214.43 2019.92 1219.55 2043.84 1248.75 2043.36 1280.78 2043.14 1295.33 2036.4 1301.6 2022.37 1301.57ZM2007.63 939.12C2007.51 914.72 2021 900.63 2043.31 894.08 2056.27 890.27 2069.63 887.83 2082.6 884.07 2091.19 881.58 2103.06 880.38 2100.02 867.04 2097.51 856.02 2087.29 854.49 2077.58 854.2 2067.61 853.91 2060.05 859.07 2052.34 864.85 2040.86 873.46 2026.38 873.12 2018.47 862.91 2009.64 851.52 2021.1 840.86 2030.04 834.62 2058.09 815.03 2089.26 816.25 2119.54 827.56 2146 837.44 2145.84 862.28 2146.24 885.53 2146.44 896.97 2146.27 908.41 2146.27 919.85 2146.04 919.85 2145.81 919.87 2145.59 919.88 2146.21 932.33 2145.3 945.1 2147.76 957.18 2152.57 980.72 2139.02 988.2 2122.24 980.67 2104.3 972.62 2090.85 978.88 2075.04 982.64 2037.18 991.65 2007.78 972.18 2007.62 939.13ZM2151.01 1249.59C2115.08 1250.13 2115.97 1275.23 2115 1299.63 2114.43 1314.19 2114.69 1328.78 2114.17 1343.34 2113.75 1355.23 2108.63 1363.01 2095.39 1363.5 2080.71 1364.05 2074.33 1356.21 2074.06 1342.7 2073.69 1323.97 2073.97 1305.23 2073.97 1286.49 2073.81 1286.49 2073.64 1286.49 2073.48 1286.49 2073.48 1277.12 2073.43 1267.75 2073.48 1258.38 2073.75 1218.63 2073.74 1219.2 2113.7 1220.58 2123.57 1220.92 2133.52 1215.2 2143.62 1214.17 2152.82 1213.23 2164.24 1213.53 2165.61 1225.9 2166.77 1236.36 2163.79 1249.41 2151 1249.6ZM2310 1322.43C2308.07 1347.51 2287.36 1364.21 2254.62 1367.15 2232.42 1369.15 2210.63 1367.15 2192.57 1352.44 2184.06 1345.51 2171.46 1336.01 2180.69 1324.59 2188.4 1315.05 2203.71 1313.41 2214.3 1323.32 2225.74 1334.03 2237.46 1340.8 2253.33 1336.96 2259.55 1335.45 2265.39 1332.62 2266.18 1325.27 2267 1317.57 2261.39 1314.18 2255.28 1312.26 2243.4 1308.52 2231.3 1305.5 2219.37 1301.91 2195.71 1294.8 2176.25 1282.84 2179.33 1254.44 2182.5 1225.24 2204.06 1215.96 2230.07 1213.74 2234.19 1213.39 2238.37 1213.69 2242.53 1213.69 2258.29 1213.36 2274.05 1214.23 2287 1224.46 2294.86 1230.67 2305.86 1238.28 2298.16 1249.55 2292.04 1258.52 2279.56 1260.05 2269.82 1254.52 2254.29 1245.69 2230.51 1231.58 2224.84 1250.69 2218.47 1272.2 2249.66 1267.17 2264.29 1272.67 2288.73 1281.86 2312.51 1289.72 2309.99 1322.43ZM2384.61 1342.77C2384.46 1354.57 2380.06 1362.82 2366.45 1363.19 2353.69 1363.53 2346.34 1357.73 2346.21 1345.04 2345.83 1308.61 2345.86 1272.17 2346.05 1235.73 2346.12 1223.21 2352.82 1216.54 2365.66 1216.8 2378.51 1217.07 2384.52 1224.18 2384.62 1236.56 2384.77 1254.26 2384.66 1271.96 2384.66 1289.66 2384.66 1307.36 2384.83 1325.06 2384.6 1342.76ZM2346.65 1176.15C2347.19 1164.37 2354.58 1160.49 2364.99 1160.46 2376.99 1160.42 2384.49 1165.44 2384.11 1178.58 2384.02 1191.93 2376.09 1196.08 2364.16 1195.81 2351.2 1195.51 2346.09 1188.44 2346.65 1176.16ZM2393.77 844.56C2380.66 886.23 2367.18 927.79 2353.57 969.3 2349.5 981.72 2338.85 982.09 2328 982.21 2315.77 982.35 2308.44 976.67 2305.13 965.23 2298.86 943.59 2292.61 921.94 2279.65 899.94 2273.79 920.21 2267.63 940.4 2262.18 960.78 2258.56 974.34 2252.08 982.46 2236.42 982.48 2221.53 982.5 2213.38 976.44 2209.08 962.51 2197.73 925.73 2185.49 889.22 2174.33 852.38 2171.59 843.31 2164.56 830.73 2179.86 826.22 2194.03 822.05 2206.21 825.27 2211.97 842.03 2219.19 863.04 2221.67 885.95 2237.43 912.28 2245.1 885.95 2251.03 866.55 2256.34 846.99 2259.96 833.65 2266.16 824.95 2281.78 824.63 2298.66 824.29 2305.99 832.91 2309.66 847.91 2314.3 866.9 2319.87 885.66 2326.53 909.96 2344.26 888.6 2344.86 866.3 2351.95 846.92 2356.61 834.18 2361.85 824.22 2377.76 825.04 2390.81 825.71 2398.06 830.86 2393.76 844.55ZM2491.78 1356.28C2487.49 1368.72 2474.83 1365.6 2467.51 1367.52 2441.66 1366.94 2429.37 1355.43 2426.2 1331.73 2421.92 1299.73 2432.13 1265.9 2410.51 1235.69 2403.01 1225.21 2433.97 1178.61 2448.27 1174.03 2451.97 1172.85 2457.66 1171.19 2459.81 1172.96 2473.36 1184.08 2458.93 1206 2480.56 1217.61 2506.12 1231.33 2485.54 1241.75 2472.55 1252.85 2458.53 1264.83 2463.46 1323.33 2479.23 1332.07 2490.49 1338.31 2495.66 1345.04 2491.78 1356.29ZM2496.66 519.71C2525.01 423.3 2658.64 319.04 2759.45 313.13 2781.47 311.84 2789.87 319.88 2789.67 341.14 2789.27 383.84 2790.53 426.56 2789.56 469.24 2789.01 493.37 2798.42 503.17 2822.65 502.15 2856.99 500.7 2891.41 501.3 2925.79 500.58 2934.67 500.39 2944.5 501.54 2954.56 489.45 2919.72 470.21 2886.29 451.91 2853.03 433.32 2823.81 416.99 2823.35 413.27 2846.19 388.05 2938.3 286.29 3112.79 288.38 3203.3 391.62 3218.47 408.92 3217.41 418.7 3196.64 429.05 3157.84 448.36 3119.81 469.2 3076.98 491.76 3105.01 506.61 3129.13 501.61 3152.17 501.74 3260.9 502.34 3315.66 461.94 3347.08 357.32 3351.88 341.33 3358.88 334.43 3375.24 335.74 3392.25 337.1 3394.78 348.37 3394.78 361.96 3394.78 447.37 3394.63 532.78 3394.87 618.18 3394.94 643.2 3384.21 646.9 3363.76 636.08 3332.93 619.78 3306.47 598.19 3284.01 571.7 3279.58 566.47 3271.87 561.13 3276.32 553.04 3280.45 545.52 3289.27 547.24 3296.25 547.67 3304.4 548.17 3314.73 547.72 3320.15 552.33 3350.21 577.91 3351.25 557.32 3350.48 534.08 3349.8 513.74 3353.7 492.96 3347.11 473.06 3343.39 473.24 3340.39 472.52 3339.56 473.55 3257.75 575.2 3150.28 554.67 3043.5 534.98 3029.05 532.32 3016.33 528.87 3001.22 533.41 2923.85 556.64 2844.15 547.88 2765.18 548.58 2746.8 548.74 2743.43 536.1 2743.44 521.02 2743.47 480.4 2743.59 439.77 2743.15 399.16 2742.77 364.36 2737.21 360.04 2704.12 373.63 2633.93 402.46 2581.72 451.44 2547.02 518.93 2543.69 525.41 2541.72 532.71 2537.7 538.67 2528.29 552.61 2513.81 550.92 2501.11 546.37 2486.55 541.15 2493.97 529.02 2496.71 519.7ZM3323.88 916.67C3323.34 916.67 3322.81 916.67 3322.27 916.67 3322.27 942.65 3324.04 968.79 3321.8 994.58 3319.34 1022.97 3301.05 1039.96 3273.07 1043.36 3240.94 1047.27 3207.86 1050.69 3183.71 1021.43 3178.43 1015.03 3174.31 1006.42 3179.45 998.35 3184.07 991.09 3192.58 994.3 3199.68 994.45 3211.61 994.71 3221.19 999.86 3230.92 1006.67 3244.15 1015.93 3258.8 1014.66 3271.66 1005.03 3281.12 997.94 3283.07 986.56 3278.74 976.78 3273.21 964.28 3264.53 975.02 3257.78 977.05 3218.77 988.77 3186.7 972.41 3174.8 933.61 3167.9 911.1 3168.31 888.25 3175.6 865.95 3185.83 834.65 3214.9 815.44 3245.69 822.02 3264.5 826.04 3281.31 833.27 3301.84 825.96 3316.51 820.74 3323.96 832.99 3323.92 848 3323.86 870.89 3323.91 893.78 3323.91 916.67ZM2609.95 1165.38C2601.31 1179.26 2592.85 1193.9 2574.95 1197.67 2568.85 1198.95 2561.1 1195.92 2563.17 1187.61 2566.65 1173.65 2570.18 1158.25 2588.84 1157.02 2596.4 1156.52 2605.86 1153.59 2609.95 1165.38ZM2524.4 783.11C2540.07 773.36 2549.61 774.52 2549.73 795.7 2549.8 808.54 2552.02 818.5 2566.3 825.61 2583.95 834.39 2581.93 846.52 2565.35 857.74 2543.81 872.31 2542.21 935.54 2563.8 947.3 2574.53 953.14 2581.5 957.91 2578.94 970.03 2575.73 985.18 2562.2 982.76 2552.48 984.59 2525.32 984.8 2509.96 972.98 2508.96 945.97 2508.27 927.32 2508.84 908.61 2507.94 889.98 2507.5 880.84 2507.01 870.8 2503.07 862.91 2491.39 839.55 2502.2 796.92 2524.41 783.1ZM2619.02 1301.8C2605.55 1301.26 2592.02 1301.47 2578.55 1302.06 2569.65 1302.45 2558.53 1299.31 2553.75 1310.12 2550.47 1317.54 2555.35 1324.31 2561.05 1329.18 2569.53 1336.42 2579.37 1339.47 2589.78 1333.72 2595.12 1330.77 2599.11 1325.33 2604.49 1322.48 2615.56 1316.62 2628.71 1316.94 2635.81 1326.25 2643.88 1336.84 2632.68 1345.65 2625.14 1351.86 2600.98 1371.76 2573.24 1372.35 2545.93 1360.84 2516.05 1348.24 2508.69 1321.24 2507.54 1291.71 2507.33 1247.55 2530.43 1217.62 2567.57 1213.92 2607.79 1209.91 2636.34 1231.61 2643.82 1270.59 2647.86 1291.62 2642.03 1302.73 2619.03 1301.81ZM2735.91 884.09C2733.79 907.9 2734.1 931.93 2733.52 955.86 2733.15 970.95 2729.78 982.62 2710.74 982.02 2692.83 981.45 2691.37 969.6 2691.29 956.3 2691.18 938.59 2691.26 920.88 2691.29 903.17 2691.32 885.46 2691.56 867.74 2691.26 850.04 2690.85 826.03 2705.39 819.48 2723.61 827.78 2736.22 833.52 2744.18 830.73 2755.05 826.57 2801.41 808.79 2833.49 830.51 2834.82 880.33 2835.49 905.32 2834.85 930.33 2834.89 955.34 2834.91 970.24 2832.44 982.4 2813.09 982.09 2793.28 981.77 2792.58 968.38 2792.38 954.17 2792.06 931.26 2792.28 908.32 2791.39 885.43 2790.78 869.7 2785.52 855.58 2766.79 855.17 2748.15 854.76 2737.47 866.68 2735.92 884.1ZM2865.04 1362.34C2850.74 1357.31 2839.54 1359.18 2826.65 1364.31 2813.59 1369.51 2799.91 1368.11 2786.97 1362.62 2754.5 1348.85 2738.67 1302.36 2751.54 1259.12 2762.28 1223.05 2789.67 1206.72 2829.46 1217.25 2850.19 1222.73 2853.5 1215.26 2853.1 1198.44 2852.95 1192.2 2853.48 1185.95 2853.56 1179.7 2853.72 1166.85 2860.25 1160.61 2873.01 1160.83 2885.78 1161.05 2892.08 1167.81 2892.13 1180.37 2892.22 1207.46 2892.16 1234.54 2892.16 1261.63 2892.24 1261.63 2892.31 1261.63 2892.39 1261.63 2892.39 1287.68 2892.17 1313.73 2892.46 1339.77 2892.68 1359.13 2882.13 1368.35 2865.04 1362.34ZM3015.21 1301.84C3006.91 1301.89 2998.58 1301.55 2990.3 1302.05 2981.32 1302.59 2970.28 1299.71 2965.41 1310.24 2961.98 1317.65 2966.96 1324.37 2972.64 1329.26 2981.13 1336.57 2990.79 1339.08 3001.44 1333.86 3003.29 1332.95 3005.31 1331.98 3006.63 1330.48 3019.01 1316.38 3038.98 1312.75 3046.44 1326.53 3056.2 1344.53 3035.83 1355.78 3020.94 1361.54 2992.12 1372.68 2962.47 1372 2939.83 1348.53 2914.04 1321.8 2913.65 1288.3 2925.48 1255.27 2935.66 1226.86 2957.87 1213.25 2988.25 1213.5 3014.24 1213.5 3034.67 1223.5 3047.2 1246.93 3067.8 1285.46 3058.33 1301.56 3015.21 1301.83ZM3137.95 943.16C3128.85 967.3 3109.38 979 3084.9 980.38 3051.69 982.24 3018.35 981.62 2985.07 982.38 2967.78 982.77 2960.72 974.15 2960.86 957.58 2961.09 929.5 2960.92 901.42 2960.92 873.34 2960.89 873.34 2960.85 873.34 2960.82 873.34 2960.82 846.3 2961.25 819.25 2960.68 792.22 2960.27 773.03 2967.46 762.99 2987.93 763.66 3017.04 764.61 3046.32 762.89 3075.27 765.36 3125.61 769.66 3145.15 806.54 3121 851.29 3114.78 862.8 3114.88 868.86 3124.49 877.48 3144.77 895.67 3147.19 918.71 3137.97 943.17ZM3334.74 1327.99C3326.34 1349.36 3309.44 1361.62 3286.94 1362.72 3254.74 1364.3 3222.43 1363.56 3190.16 1363.8 3174.07 1363.92 3168.11 1354.6 3168.09 1339.94 3168.04 1312.88 3168.08 1285.83 3168.09 1258.77 3168.09 1233.79 3168.17 1208.82 3168.07 1183.84 3168.01 1168.8 3174.67 1160.03 3190.34 1160.15 3220.51 1160.38 3250.96 1158.47 3280.77 1161.94 3323.36 1166.89 3340.81 1202.1 3320.16 1239.3 3313.45 1251.38 3311.81 1257.92 3323.08 1267.85 3341.67 1284.22 3343.46 1305.81 3334.74 1327.99ZM3446.59 866.68C3443.98 855.46 3433.68 854.52 3424.09 854.24 3412.79 853.91 3405.48 862.04 3396.47 866.93 3385.84 872.7 3372.56 872.46 3365.47 862.01 3358.18 851.27 3367.98 841.91 3375.82 835.89 3403.25 814.85 3434.3 816.6 3464.75 826.69 3491.73 835.63 3492.91 859.66 3492.66 883.32 3492.54 894.73 3492.64 906.15 3492.64 925.24 3492.87 930.02 3491.7 942.86 3494.44 954.8 3500.83 982.62 3485.18 987.98 3465.81 979.73 3450.97 973.41 3440.71 977.54 3427.85 981.15 3403.6 987.95 3379.87 987.39 3362.83 965.09 3345.47 942.36 3354.4 909.17 3381.73 897.59 3396.86 891.18 3413.64 888.71 3429.57 884.09 3438.36 881.54 3449.65 879.84 3446.59 866.7ZM3467.86 1162.92C3461.45 1170.99 3456.75 1177.68 3451.24 1183.63 3443.57 1191.93 3436.1 1202.01 3422.46 1197.09 3416.62 1194.98 3415.83 1189.36 3418.08 1184.04 3422.84 1172.76 3425.58 1159.33 3440.83 1157.18 3448.94 1156.03 3457.42 1154.76 3467.86 1162.92ZM3460.7 1301.8C3451.33 1301.93 3441.92 1301.48 3432.58 1302.11 3423.69 1302.71 3412.41 1299.72 3408.39 1311.21 3405.73 1318.83 3411.08 1325.36 3416.89 1330.01 3425.68 1337.04 3435.54 1339.17 3445.92 1333.2 3454.58 1328.22 3459.9 1316.94 3472.5 1319.41 3479.47 1320.78 3488.01 1319.3 3491.89 1326.93 3495.86 1334.74 3490.39 1340.9 3485.68 1346.4 3471.69 1362.74 3452.92 1367.53 3432.38 1367.72 3386.11 1366.92 3358.52 1333.82 3362.27 1283.57 3365.87 1235.38 3398.09 1207.69 3443.27 1214.2 3466.81 1217.59 3483.46 1230.31 3492.9 1252.2 3508.55 1288.47 3500.23 1301.27 3460.7 1301.8ZM3571.63 1309.09C3570.87 1309.09 3570.11 1309.09 3569.34 1309.09 3569.34 1335.03 3570.13 1361.01 3569.07 1386.91 3568.31 1405.34 3558.24 1418.31 3539.5 1422.29 3526.29 1425.1 3510.2 1428.7 3503.13 1414.19 3497 1401.6 3505.3 1390.84 3518.42 1384.58 3531.07 1378.54 3530.17 1366.05 3530.24 1354.65 3530.47 1319.31 3530.24 1283.97 3530.59 1248.64 3530.73 1234.4 3528.09 1217.29 3550.04 1216.63 3574.55 1215.9 3570.96 1234.9 3571.46 1249.85 3572.11 1269.58 3571.62 1289.34 3571.62 1309.09ZM3549.86 1159.98C3561.73 1159.58 3570.26 1163.3 3570.69 1176.96 3570.89 1189.46 3565.24 1196.28 3552.2 1196.31 3540.48 1196.34 3531.83 1192.95 3531.24 1179.31 3530.68 1166.28 3537.4 1160.4 3549.85 1159.98ZM3541.89 1044.69C3532.58 1042.41 3527.38 1037.47 3525.96 1028.11 3524.36 1017.61 3529.94 1014.32 3539.19 1011.02 3572.64 999.08 3575.98 991.4 3563.77 958.25 3551.55 925.07 3538.01 892.36 3526.64 858.9 3523.06 848.37 3508.35 832.76 3531.06 825.98 3548.7 820.71 3560.97 828.4 3566.55 846.76 3572.29 865.65 3579.04 884.25 3585.52 902.91 3587.51 908.65 3588.6 915.23 3597.46 918.08 3611.11 897.24 3614.51 872.12 3623.5 849.27 3627.66 838.7 3630.1 826.7 3644.6 825.31 3661.68 823.68 3675.37 825.88 3667.1 848.43 3647.06 903.1 3627.66 958.04 3606 1012.06 3595.5 1038.25 3566.45 1050.71 3541.88 1044.69ZM3695.29 1357.65C3685.09 1356.26 3677.51 1362.53 3668.6 1364.81 3636.55 1373.02 3609.4 1360.78 3602.66 1334.75 3595.84 1308.39 3610.29 1288.68 3643.6 1279.39 3652.6 1276.88 3661.95 1275.57 3670.91 1272.93 3679.6 1270.37 3691.42 1268.71 3687.48 1255.48 3684.18 1244.42 3673.14 1243.67 3663.94 1245.62 3656.15 1247.27 3649.2 1252.6 3641.63 1255.69 3630.47 1260.24 3617.47 1262.49 3611.46 1250.27 3606.16 1239.5 3615.87 1230.27 3624.62 1224.86 3651.45 1208.28 3680.42 1209.17 3708.46 1220.26 3732.39 1229.72 3731.17 1252.6 3731.46 1273.58 3731.6 1283.97 3731.49 1294.37 3731.49 1304.77L3731.82 1304.77C3731.82 1312.05 3731.55 1319.33 3731.87 1326.6 3733.46 1362.69 3733.49 1362.88 3695.31 1357.66ZM3743.76 1171.93C3744.37 1159.39 3752.66 1156.79 3762.99 1157.46 3773.76 1158.16 3776.17 1165.66 3776.18 1174.77 3775.42 1184.69 3770.33 1189.62 3760.13 1189.4 3748.51 1189.15 3743.19 1183.41 3743.75 1171.93ZM3808.83 1344.64C3808.33 1356.45 3801.97 1363.81 3788.82 1363.62 3775.97 1363.43 3769.23 1356.92 3769.12 1344.53 3768.81 1308.09 3768.79 1271.64 3769.1 1235.2 3769.2 1222.55 3776.83 1216.57 3789.2 1216.34 3802.1 1216.1 3808.63 1223.02 3808.95 1235.34 3809.4 1253.03 3809.06 1270.73 3809.06 1288.43 3809.06 1307.17 3809.63 1325.94 3808.84 1344.64ZM3820.48 1189.37C3809.13 1190.03 3802.49 1185.06 3802.47 1173.4 3802.45 1163.87 3806.85 1157.61 3817.33 1157.42 3828.42 1156.98 3835.34 1161.41 3835.37 1173.36 3835.4 1183.2 3830.61 1188.79 3820.48 1189.37ZM3808.9 915.36C3795.42 914.67 3781.82 914.77 3768.35 915.68 3757.71 916.4 3744 911.56 3738.77 926.03 3736.04 933.61 3741.48 940.14 3747.39 944.69 3758.38 953.16 3770.15 954.25 3782.02 946.25 3787.95 942.26 3793.2 935.8 3799.63 934.35 3809.61 932.11 3822.12 931.97 3828.02 941.73 3833.88 951.44 3824.49 959.07 3818.17 965.57 3783.51 1001.2 3712.88 986.59 3696 939.97 3691.82 928.44 3690.87 915.74 3689.84 910.64 3690.03 856.88 3714.87 825.04 3754.04 821.04 3795.82 816.78 3827.12 840.69 3834.78 881.84 3838.78 903.35 3834.2 916.63 3808.89 915.35ZM3932.8 1357.62C3923.72 1356.41 3916.94 1361.65 3909.1 1363.86 3875.34 1373.36 3847.21 1361.48 3840.23 1334.64 3833.18 1307.56 3848.57 1287.84 3884.13 1278.63 3892.17 1276.55 3900.46 1275.37 3908.4 1272.98 3917.09 1270.36 3928.79 1268.66 3924.85 1255.44 3921.53 1244.29 3910.54 1243.65 3901.38 1245.61 3893.6 1247.27 3886.58 1252.38 3879.16 1255.83 3868.92 1260.59 3857.04 1261.43 3850.42 1252.77 3842.3 1242.16 3851.92 1232.69 3860 1226.75 3885.9 1207.72 3915.13 1209.6 3943.32 1219.06 3969.05 1227.7 3968.96 1251.51 3969.16 1273.76 3969.25 1284.14 3969.18 1294.52 3969.18 1304.91 3969.14 1304.91 3969.09 1304.91 3969.05 1304.91 3969.05 1311.14 3968.81 1317.38 3969.09 1323.59 3970.83 1362.5 3970.85 1362.68 3932.83 1357.61Z" stroke-width="0" fill="#1D538B"/><path d="M3031.45 463.24C3062.91 447.18 3094.02 430.43 3125.31 414.05 3143.91 404.31 3141.37 394.92 3125.01 385.77 3092.53 367.61 3057.11 360.57 3021.18 358.22 2983.46 359.95 2948.26 367.94 2916.89 388.29 2909.14 393.32 2894.01 401.63 2909.45 411.01 2943.1 431.45 2978.62 448.88 3013.88 466.52 3018.18 468.67 3026.23 465.9 3031.44 463.24Z" stroke-width="0" fill="#1D538B"/><path d="M952.53 234.14C821.04 281.49 698.03 256.18 580.53 189.13 563.58 179.46 551.1 180.9 534.88 190.64 416.09 261.94 291.46 286.76 158.56 233.03 139.34 225.26 132.39 233.08 126.78 249.48 77.28 394.24 43.76 541.98 41.52 732.86 35.41 861.01 87.73 1004.86 196.23 1129.46 290.78 1238.03 404.18 1321.07 532.51 1385.04 549.28 1393.4 563.25 1392.64 579.56 1384.34 676.74 1334.87 767.97 1276.31 845.86 1199.81 948.84 1098.67 1027.97 982.23 1054.63 837.17 1092.28 632.31 1044.68 437.75 979.23 245.71 974.39 231.5 965.73 229.38 952.53 234.14ZM607.73 294.24C631.22 296.36 642.47 310.61 644.12 330.64 643.31 355.47 624.64 372.68 602.41 370.55 579.07 368.32 566.68 354.33 566.36 331.24 566.05 309.06 585.24 292.21 607.73 294.24ZM475.84 331.08C476.46 308.85 494.47 292.74 517.07 294.2 538.21 295.57 553.14 312.16 552.46 336.44 550.25 356.55 537.95 369.73 514.61 370.56 492.4 371.35 475.22 353.3 475.84 331.08ZM528.11 998.86C528.11 1075.98 528.4 1153.1 527.97 1230.22 527.77 1265.95 522.33 1270.01 489.6 1256.4 303.21 1178.92 158.05 1011.29 193.41 761.18 197.08 735.23 207.03 724.58 233.38 726.15 261.44 727.82 289.67 726.57 317.82 726.64 338.8 726.69 346.5 733.12 335.75 755.17 275.06 879.7 304 997.79 415.47 1084.26 420.98 1088.54 426.31 1096.64 434.1 1092.76 443.14 1088.26 439.9 1077.99 439.92 1070.17 440.2 970.12 439.92 870.07 440.44 770.03 440.51 756.39 434.08 737 452.03 731.55 473.75 724.96 497.78 723.78 519.37 733.23 531.86 738.7 527.86 753.42 527.91 764.36 528.26 842.52 528.1 920.69 528.09 998.85ZM340.42 705.6C297.58 705.52 265.58 685.72 248.83 646.83 233.21 610.56 239.41 574.95 264.85 544.27 283.95 521.23 309.76 511.29 339.54 511.26 390.62 511.21 441.7 511.29 492.78 510.9 508.33 510.78 525.17 512.36 525.38 488.21 525.58 465 510.65 463.54 493.98 464.3 463.14 465.72 431.13 457.89 402.2 475.39 391.05 482.14 386.7 476.41 386.6 465.9 386.39 444.04 386.17 422.14 387.23 400.31 388.27 379.08 405.2 380.39 419.64 380.33 496.78 380.02 573.93 380.09 651.07 380.06 684.43 380.04 717.8 379.66 751.14 380.33 761.94 380.55 777.02 375.24 782.21 387.82 787.73 401.2 772.32 406.57 764.36 413.77 745.85 430.52 726.63 446.47 707.69 462.75L707.69 462.75C683.81 463.53 659.93 464.83 636.04 464.91 617.84 464.97 609.27 472.88 609.47 491.19 609.72 514.05 608.09 536.99 609.49 559.76 611.13 586.51 600.98 596.83 573.56 596.3 504.95 594.98 436.29 595.48 367.67 596.37 354.77 596.54 331.68 589.26 332.22 609.01 332.74 627.86 355.72 620.22 368.69 620.29 501.8 620.96 634.91 620.57 768.02 620.96 781.74 621 797.97 615.82 807.23 632.46 805.08 636.01 801.75 639.32 800.97 643.15 789.39 699.69 752.58 708.81 700.03 707.06 580.28 703.07 460.3 705.84 340.42 705.61ZM669.08 545.2C703.9 561.79 707.29 572.4 688.49 606 668.49 610.19 648.3 612.27 640.34 587.73 633.19 565.68 647.34 553.72 665.4 545.22 660 540.61 654.4 536.19 649.23 531.34 638.37 521.15 635.36 508.5 641.12 495.05 648.99 476.66 665.66 475.79 682.61 476.58 709.03 507.37 706.88 518.29 669.08 545.19 667.85 545.19 666.63 545.21 665.4 545.22 666.63 545.22 667.85 545.2 669.08 545.19ZM893.34 1036.73C873.14 1075.4 842.46 1105.1 809 1132.09 746.11 1182.81 675.77 1221.39 603.27 1256.19 576.3 1269.14 570.3 1265.21 570.1 1234.71 569.58 1155.52 569.93 1076.33 569.9 997.14 569.87 918.99 570.63 840.83 569.46 762.7 569.06 735.8 578.42 725.5 605.7 726.11 665.1 727.45 724.55 726.27 783.97 726.55 847.37 726.84 886.99 783.59 862.81 842.76 853.88 864.6 855.89 876.97 872.91 893.53 914.45 933.95 920.46 984.8 893.33 1036.73Z" stroke-width="0" fill="#1D538B"/><path d="M3043.43 887.84C3024.08 886.72 3005.82 886.15 3005.35 915 3004.86 944.99 3022.63 946.13 3044.4 944.66 3065.33 943.03 3094.19 948.28 3094.89 917.56 3095.64 884.35 3065.54 889.12 3043.43 887.84Z" stroke-width="0" fill="#1D538B"/><path d="M3078.29 843.28C3089.73 833.77 3091.49 821.94 3081.7 810.63 3072.6 800.12 3059.11 801.82 3046.71 801.4 3035.42 802.12 3022.23 798.05 3013.47 805.85 3002.12 815.96 3002.92 830.59 3010.51 842.92 3017.44 854.17 3065.46 853.97 3078.3 843.29Z" stroke-width="0" fill="#1D538B"/><path d="M3244.8 1276.13C3227.58 1274.87 3211.34 1275.05 3210.54 1300.31 3209.64 1328.79 3227.27 1329.5 3254.45 1328.23 3267.11 1326.6 3295.02 1332.8 3293.55 1301.53 3292.16 1271.84 3264.58 1277.57 3244.8 1276.12Z" stroke-width="0" fill="#1D538B"/><path d="M3246.76 1240.35C3261.37 1238.24 3284.81 1243.38 3285.3 1217.89 3285.8 1191.96 3262.56 1195.75 3245.52 1195.32 3229.04 1194.9 3210.48 1192.56 3211.08 1218.8 3211.64 1243.44 3229.6 1239.01 3246.77 1240.35Z" stroke-width="0" fill="#1D538B"/><path d="M3246.66 854.7C3219.8 857.19 3214.26 877.8 3214.18 899.51 3214.11 920.98 3218.6 942.07 3245.52 945.23 3266.3 947.67 3281.14 928.25 3281.36 900.52 3281.58 872.64 3267.27 852.79 3246.66 854.7Z" stroke-width="0" fill="#1D538B"/><path d="M1934.22 903.69C1934.68 874.14 1922.41 855.45 1901.95 854.52 1881.01 853.57 1866.49 872.03 1866.72 900.8 1866.9 923.83 1870.8 946.1 1899.06 949.95 1919.26 952.71 1933.78 932.35 1934.22 903.69Z" stroke-width="0" fill="#1D538B"/><path d="M2819.29 1246.03C2793.35 1246.77 2790.31 1268.65 2788.63 1289.56 2790.94 1310.7 2793.06 1334.18 2821.76 1333.09 2847.4 1332.12 2852.44 1310.57 2852.23 1289.86 2852.01 1268.14 2847.39 1245.22 2819.28 1246.03Z" stroke-width="0" fill="#1D538B"/><path d="M2102.48 924.03C2102.89 912.7 2095.19 910.61 2083.76 912.35 2071.5 916.23 2052.23 914.69 2051.67 936.14 2051.35 948.39 2061.55 954.15 2073.07 953.42 2090.88 952.29 2101.81 942.5 2102.48 924.03Z" stroke-width="0" fill="#1D538B"/><path d="M3430.27 912.74C3418.63 915.8 3401.16 915.34 3399.53 934.37 3398.31 948.6 3409.19 954.41 3422.16 953.04 3438.52 951.31 3448.66 941.92 3449.05 924.71 3449.3 913.45 3441.85 911.15 3430.27 912.74Z" stroke-width="0" fill="#1D538B"/><path d="M1550.93 953.44C1568.85 952.37 1579.84 942.5 1580.27 924.03 1580.52 913.43 1573.31 909.99 1559.47 912.46 1549.59 916.57 1529.92 914.62 1529.51 936.22 1529.27 948.64 1539.43 954.13 1550.93 953.44Z" stroke-width="0" fill="#1D538B"/><path d="M3765.82 854.66C3752.06 853.88 3740.35 860.53 3738.91 874.67 3737.03 893.11 3753.3 887.14 3764.82 890.01 3772.51 885.66 3789.17 894.97 3790.2 877.27 3791.04 862.69 3779.42 855.43 3765.82 854.66Z" stroke-width="0" fill="#1D538B"/><path d="M3913.47 1298.99C3900.47 1301.41 3884.54 1301.58 3881.8 1318.65 3879.77 1331.32 3888.98 1337.91 3900.96 1337.64 3916.43 1337.29 3925.64 1328.39 3928.49 1313.98 3928.88 1302.65 3924.11 1297.01 3913.47 1298.99Z" stroke-width="0" fill="#1D538B"/><path d="M3674.86 1299.04C3661.91 1301.87 3645.86 1302.15 3644.15 1319.8 3642.89 1332.8 3652.84 1338.39 3664.59 1337.59 3680.07 1336.53 3688.9 1327.17 3691.07 1312.69 3691.15 1300.52 3684.9 1296.85 3674.86 1299.05Z" stroke-width="0" fill="#1D538B"/><path d="M3432.75 1245.45C3420.07 1245.29 3409.24 1251.51 3408.9 1264.72 3408.49 1280.69 3423.13 1275.33 3433.78 1277.96 3440.75 1274.14 3456.05 1281.79 3456.03 1265.29 3456.01 1251.89 3445.39 1245.61 3432.74 1245.45Z" stroke-width="0" fill="#1D538B"/><path d="M1976.2 1245.47C1963.44 1245.33 1952.8 1251.52 1952.29 1264.74 1951.67 1281.1 1966.41 1275.3 1976.85 1277.96 1984.14 1274.34 1999.35 1281.25 1999.49 1265.29 1999.61 1252.08 1988.95 1245.62 1976.19 1245.47Z" stroke-width="0" fill="#1D538B"/><path d="M2578.82 1245.45C2566 1245.01 2555.31 1250.71 2553.84 1263.62 2551.97 1280.06 2566.46 1275.76 2576.1 1277.59 2585.63 1275.03 2601.81 1281.61 2600.84 1263.28 2600.24 1251.99 2590.39 1245.85 2578.81 1245.45Z" stroke-width="0" fill="#1D538B"/><path d="M2989 1245.41C2976.39 1245.61 2965.41 1251.68 2965.53 1265.16 2965.67 1281.01 2980.23 1275.37 2991.03 1277.95 2997.78 1273.91 3013.49 1281.69 3012.88 1264.88 3012.4 1251.73 3001.82 1245.21 2989 1245.41Z" stroke-width="0" fill="#1D538B"/><path d="M747 916.91C726.2 915.92 705.3 916.97 684.46 916.68 665.12 916.4 655.9 924.53 656.74 944.82 657.73 968.74 656.97 992.74 657 1016.71 657.03 1042.76 656.72 1068.81 657.2 1094.85 657.36 1103.59 656.97 1118.28 671.38 1111.06 723.6 1084.86 777.64 1059 802.75 1001.34 819.73 962.34 789.8 918.95 747.01 916.92Z" stroke-width="0" fill="#1D538B"/><path d="M706.05 834.33C720.55 828.6 748.02 842.34 748.21 822.99 748.4 803.52 721.33 813.49 706.66 813.19 691.54 812.88 663.84 805.1 663.84 822.51 663.84 841.91 691.3 828.85 706.04 834.33Z" stroke-width="0" fill="#1D538B"/></svg>