<svg viewBox="0 0 2125.61 2124.44" xmlns="http://www.w3.org/2000/svg" xmlns:xlink="http://www.w3.org/1999/xlink" id="EN_COURS" overflow="hidden"><defs></defs><g><path d="M219.28 1003.88C219.28 1003.17 218.33 998.09 216.63 989.54 201.41 913.23 125.88 560.18 125.88 560.18L297.97 581.75 548.21 911.91" stroke-width="0" fill="#1B2030"/><path d="M497.72 1622.5 159.63 1622.56 264.21 1484.4 684.75 1651.1 497.72 1622.5Z" stroke-width="0" fill="#1B2030"/><path d="M1396.92 1827.94 1096.49 2124.44 1022.66 1964.46 1264.82 1622.5 1396.92 1827.94Z" stroke-width="0" fill="#1B2030"/><path d="M1761.32 1078.14 1999.74 1564.27 1827.65 1542.7 1761.32 1078.14Z" stroke-width="0" fill="#1B2030"/><path d="M1627.89 501.94 1965.98 501.88 1861.4 640.04 1424.67 770.44 1627.89 501.94Z" stroke-width="0" fill="#1B2030"/><path d="M701.68 338.95 1029.13 0 1096.49 159.67 843.3 415.65 701.68 338.95Z" stroke-width="0" fill="#1B2030"/><circle cx="1062.81" cy="1062.22" r="903.17" stroke-width="0" fill="#363949"/></g><g><g><path d="M1029.13 1003.88 1029.13 0C694.22 10.43 398.4 175.79 210.87 426.81 181.76 465.78 193.69 521.55 235.82 545.87L1029.12 1003.88Z" stroke-width="0" fill="#FF4C5D"/><path d="M1029.13 1120.56 159.64 1622.56C326.45 1890.85 609.42 2079.36 938.28 2117.75 986.68 2123.4 1029.13 2085.34 1029.13 2036.61L1029.13 1120.57Z" stroke-width="0" fill="#FFB059"/><path d="M1999.74 1564.27C2080.03 1414.75 2125.61 1243.82 2125.61 1062.23 2125.61 912.9 2094.78 770.78 2039.18 641.85 2019.95 597.25 1965.74 579.81 1923.67 604.1L1130.16 1062.23 1999.73 1564.27Z" stroke-width="0" fill="#0079A1"/><path d="M1096.49 1003.88 1965.98 501.88C1799.17 233.59 1516.2 45.08 1187.34 6.7 1138.94 1.05 1096.49 39.11 1096.49 87.84L1096.49 1003.88Z" stroke-width="0" fill="#FF4E9E"/><path d="M1096.49 1120.56 1096.49 2124.44C1431.4 2114.01 1727.22 1948.65 1914.74 1697.63 1943.85 1658.66 1931.92 1602.89 1889.79 1578.57L1096.49 1120.56Z" stroke-width="0" fill="#00AD6C"/><path d="M125.87 560.18C45.59 709.7 0 880.63 0 1062.22 0 1211.55 30.83 1353.67 86.43 1482.6 105.66 1527.2 159.87 1544.64 201.94 1520.35L995.45 1062.22 125.87 560.18Z" stroke-width="0" fill="#FF8A57"/></g><g><path d="M1042.37 1028.21 1032.05 437.01C834.93 446.6 662.41 547.02 554.56 696.78 537.81 720.03 545.42 752.75 570.48 766.64L1042.37 1028.21Z" stroke="#FFFFFF" stroke-width="3" stroke-miterlimit="10" stroke-dasharray="0 0 12 22" fill="#D61048"/><path d="M1043.57 1096.92 536.67 1401.49C637.66 1557.78 806.25 1665.88 1000.31 1685.11 1028.87 1687.94 1053.48 1665.09 1052.98 1636.39L1043.56 1096.92Z" stroke="#FFFFFF" stroke-width="3" stroke-miterlimit="10" stroke-dasharray="0 0 12 22" fill="#FBBA06"/><path d="M1619.74 1348.25C1665.49 1259.37 1690.57 1158.24 1688.71 1051.29 1687.17 963.35 1667.56 879.97 1633.49 804.61 1621.7 778.54 1589.6 768.83 1565.08 783.56L1102.48 1061.52 1619.74 1348.24Z" stroke="#FFFFFF" stroke-width="3" stroke-miterlimit="10" stroke-dasharray="0 0 12 22" fill="#0098C9"/><path d="M1082.04 1027.52 1588.94 722.95C1487.95 566.66 1319.36 458.56 1125.3 439.33 1096.74 436.5 1072.13 459.35 1072.63 488.05L1082.05 1027.52Z" stroke="#FFFFFF" stroke-width="3" stroke-miterlimit="10" stroke-dasharray="0 0 12 22" fill="#A7368C"/><path d="M1083.24 1096.23 1093.56 1687.43C1290.68 1677.84 1463.2 1577.42 1571.05 1427.66 1587.8 1404.41 1580.19 1371.69 1555.13 1357.8L1083.24 1096.22Z" stroke="#FFFFFF" stroke-width="3" stroke-miterlimit="10" stroke-dasharray="0 0 12 22" fill="#51C56C"/><path d="M505.87 776.19C460.12 865.07 435.04 966.2 436.9 1073.15 438.44 1161.09 458.05 1244.47 492.12 1319.83 503.91 1345.9 536.01 1355.61 560.53 1340.88L1023.13 1062.92 505.87 776.2Z" stroke="#FFFFFF" stroke-width="3" stroke-miterlimit="10" stroke-dasharray="0 0 12 22" fill="#FF695B"/></g></g><g><circle cx="1062.81" cy="1062.22" r="302" stroke-width="0" fill="#363949"/><circle cx="1062.81" cy="1062.22" r="274.91" stroke-width="0" fill="#FFFFFF"/></g></svg>