<svg viewBox="0 0 4003.93 1420.77" xmlns="http://www.w3.org/2000/svg" xmlns:xlink="http://www.w3.org/1999/xlink" id="VALIDE" overflow="hidden"><defs></defs><g><path d="M3467.3 819.46C3465.51 818.57 3463.72 817.68 3461.93 816.78" stroke="#9929F2" stroke-width="7" stroke-linecap="round" stroke-linejoin="round" fill="none"/><path d="M3447.67 809.66C3308.59 740.3 3169.5 670.95 3030.42 601.59" stroke="#9929F2" stroke-width="7" stroke-linecap="round" stroke-linejoin="round" stroke-dasharray="0 0 11.96 15.94" fill="none"/><path d="M3023.28 598.04C3021.49 597.15 3019.7 596.26 3017.91 595.36L3012.48 597.92" stroke="#9929F2" stroke-width="7" stroke-linecap="round" stroke-linejoin="round" fill="none"/><line x1="2998.08" y1="604.72" x2="2350.15" y2="910.45" stroke="#9929F2" stroke-width="7" stroke-linecap="round" stroke-linejoin="round" stroke-dasharray="0 0 11.94 15.92" fill="none"/><path d="M2342.95 913.85 2337.52 916.41 2332.11 913.82" stroke="#9929F2" stroke-width="7" stroke-linecap="round" stroke-linejoin="round" fill="none"/><line x1="2317.91" y1="907.03" x2="1678.84" y2="601.35" stroke="#9929F2" stroke-width="7" stroke-linecap="round" stroke-linejoin="round" stroke-dasharray="0 0 11.81 15.74" fill="none"/><path d="M1671.73 597.95 1666.32 595.37 1660.9 597.93" stroke="#9929F2" stroke-width="7" stroke-linecap="round" stroke-linejoin="round" fill="none"/><line x1="1646.5" y1="604.72" x2="998.65" y2="910.45" stroke="#9929F2" stroke-width="7" stroke-linecap="round" stroke-linejoin="round" stroke-dasharray="0 0 11.94 15.92" fill="none"/><path d="M991.45 913.85 986.02 916.41 980.62 913.8" stroke="#9929F2" stroke-width="7" stroke-linecap="round" stroke-linejoin="round" fill="none"/><path d="M966.54 907.02C821.11 836.91 675.68 766.8 530.25 696.68" stroke="#9929F2" stroke-width="7" stroke-linecap="round" stroke-linejoin="round" stroke-dasharray="0 0 11.72 15.62" fill="none"/><path d="M523.21 693.29C521.41 692.42 519.61 691.55 517.81 690.68" stroke="#9929F2" stroke-width="7" stroke-linecap="round" stroke-linejoin="round" fill="none"/><path d="M3456.06 813.85 3431.08 829.58 3431.6 830.48 3475.69 834.21C3489.92 837.78 3504.15 841.36 3518.38 844.93 3506.96 835.72 3495.55 826.5 3484.13 817.28L3454.62 784.31 3453.66 784.31C3453.66 784.31 3456.07 813.85 3456.07 813.85Z" stroke-width="0" fill="#9929F2"/><path d="M530.42 667.55C517.33 661.24 501.59 666.74 495.28 679.83 488.97 692.92 494.47 708.66 507.56 714.97 520.65 721.28 536.38 715.78 542.7 702.69 549.01 689.6 543.51 673.86 530.42 667.55Z" stroke-width="0" fill="#9929F2"/></g><g><path d="M3832.87 1007.92C3855.29 1020.86 3855.41 1041.85 3833.13 1054.79L3728.57 1115.55C3706.3 1128.49 3670.07 1128.49 3647.65 1115.55L3542.41 1054.79C3519.99 1041.85 3519.87 1020.86 3542.15 1007.92L3646.71 947.16C3668.99 934.22 3705.21 934.22 3727.63 947.16L3832.87 1007.92Z" stroke-width="0" fill="#00C0DE"/><path d="M3870.16 946.01 3738.99 1022.24C3711.05 1038.48 3665.6 1038.48 3637.47 1022.24L3505.44 946.01C3491.29 937.84 3484.22 927.11 3484.25 916.4L3484.21 931.57C3484.18 942.28 3491.25 953 3505.4 961.18L3637.43 1037.41C3665.56 1053.65 3711 1053.65 3738.95 1037.41L3870.12 961.18C3884 953.11 3890.95 942.56 3890.98 931.98L3891.02 916.81C3890.99 927.38 3884.04 937.94 3870.16 946.01Z" stroke-width="0" fill="#00C0DE"/><path d="M3869.83 887.21C3897.96 903.45 3898.1 929.77 3870.16 946.01L3738.99 1022.24C3711.05 1038.48 3665.6 1038.48 3637.47 1022.24L3505.44 946.01C3477.31 929.77 3477.17 903.45 3505.11 887.21L3636.28 810.98C3664.22 794.74 3709.67 794.74 3737.8 810.98L3869.83 887.21Z" stroke-width="0" fill="#F6F4FF"/><g><path d="M3681.17 907.75C3682.51 911.33 3683.19 915.7 3683.2 920.86 3683.21 926.02 3682.56 931.16 3681.25 936.27 3679.93 941.38 3678.11 946.2 3675.77 950.72 3673.43 955.25 3670.64 959.33 3667.41 962.95 3664.18 966.58 3660.69 969.48 3656.95 971.64 3653.21 973.8 3649.62 974.99 3646.42 975.07 3643.21 975.16 3640.43 974.3 3638.07 972.48 3635.71 970.67 3633.86 967.97 3632.52 964.4 3631.19 960.82 3630.51 956.45 3630.49 951.28 3630.47 946.11 3631.13 940.98 3632.44 935.87 3633.76 930.76 3635.59 925.94 3637.93 921.41 3640.26 916.89 3643.03 912.8 3646.23 909.15 3649.42 905.5 3652.93 902.58 3656.74 900.37 3660.55 898.16 3663.98 897.09 3667.22 897.02 3670.46 896.95 3673.26 897.82 3675.62 899.64 3677.98 901.45 3679.83 904.15 3681.17 907.72ZM3668.52 937.93C3669.13 934.99 3669.42 931.96 3669.42 928.83 3669.42 925.7 3669.1 923 3668.48 920.73 3667.86 918.46 3666.98 916.71 3665.86 915.48 3664.73 914.25 3663.4 913.56 3661.86 913.44 3660.32 913.3 3658.64 913.77 3656.8 914.83 3654.96 915.89 3653.17 917.43 3651.64 919.34 3650.11 921.24 3648.79 923.45 3647.67 925.98 3646.55 928.51 3645.69 931.25 3645.08 934.23 3644.47 937.21 3644.17 940.26 3644.18 943.39 3644.19 946.52 3644.5 949.2 3645.13 951.42 3645.75 953.65 3646.62 955.38 3647.75 956.61 3648.88 957.84 3650.2 958.52 3651.74 958.66 3653.28 958.78 3655 958.31 3656.91 957.2 3658.82 956.09 3660.43 954.65 3661.96 952.75 3663.49 950.85 3664.81 948.63 3665.93 946.11 3667.05 943.58 3667.91 940.85 3668.52 937.91" stroke-width="0" fill="#0094AC"/><path d="M3744.17 881.25C3745.47 883.91 3746.13 887.19 3746.14 891.11 3746.15 895.03 3745.48 899.37 3744.13 903.68 3742.77 907.99 3740.91 912.14 3738.54 916.14 3736.16 920.14 3733.36 923.81 3730.13 927.17 3726.9 930.52 3723.41 933.29 3719.67 935.45 3715.58 937.81 3711.88 939.08 3708.58 939.27 3705.27 939.46 3702.45 938.58 3700.13 936.62 3697.8 934.67 3696.02 931.68 3694.78 927.65 3693.54 923.62 3692.91 918.59 3692.9 912.57 3692.88 904.98 3693.5 897.89 3694.78 891.32 3696.06 884.74 3697.92 878.76 3700.36 873.4 3702.8 868.03 3705.75 863.33 3709.22 859.29 3712.69 855.24 3716.57 851.99 3720.86 849.51 3725.42 846.88 3729.63 845.58 3733.49 845.63 3737.34 845.68 3740.61 847.05 3743.27 849.74L3735.43 864.14C3733.79 862.1 3731.67 861.02 3729.08 860.87 3726.48 860.72 3723.69 861.51 3720.7 863.24 3716.13 865.88 3712.5 870.05 3709.79 875.77 3707.08 881.49 3705.66 888.18 3705.55 895.86 3706.97 892.22 3708.99 888.82 3711.61 885.66 3714.22 882.51 3717.27 879.92 3720.75 877.92 3724.23 875.92 3727.61 874.67 3730.72 874.28 3733.82 873.9 3736.51 874.3 3738.81 875.49 3741.1 876.68 3742.89 878.6 3744.2 881.26ZM3732.01 905.32C3732.72 902.98 3733.07 900.77 3733.07 898.66 3733.07 896.55 3732.7 894.77 3731.98 893.35 3731.26 891.92 3730.28 890.86 3729.05 890.16 3727.82 889.46 3726.4 889.18 3724.8 889.32 3723.2 889.46 3721.48 890.06 3719.64 891.12 3717.8 892.18 3716.07 893.57 3714.43 895.3 3712.8 897.02 3711.37 898.95 3710.15 901.06 3708.93 903.18 3707.97 905.35 3707.3 907.58 3706.62 909.81 3706.29 911.99 3706.3 914.1 3706.31 916.21 3706.67 918.02 3707.39 919.53 3708.11 921.03 3709.09 922.14 3710.32 922.84 3711.55 923.54 3712.96 923.86 3714.57 923.8 3716.17 923.74 3717.89 923.17 3719.73 922.11 3721.57 921.05 3723.2 919.69 3724.83 917.93 3726.46 916.16 3727.89 914.2 3729.11 912.05 3730.33 909.89 3731.3 907.65 3732.01 905.32" stroke-width="0" fill="#0094AC"/></g><text fill="#00C0DE" font-family="Arial-BoldMT,Arial" font-weight="700" font-size="70" transform="translate(3439.14 1310.42)"><tspan x="0" y="0">Représentation</tspan><tspan x="128.4" y="84">RADAR</tspan></text></g><g><path d="M3167.9 686.88C3190.32 699.82 3190.44 720.81 3168.16 733.75L3063.6 794.51C3041.33 807.45 3005.1 807.45 2982.68 794.51L2877.44 733.75C2855.02 720.81 2854.9 699.82 2877.18 686.88L2981.74 626.12C3004.02 613.18 3040.24 613.18 3062.66 626.12L3167.9 686.88Z" stroke-width="0" fill="#FF695B"/><path d="M3205.19 624.97 3074.02 701.2C3046.08 717.44 3000.63 717.44 2972.5 701.2L2840.47 624.97C2826.32 616.8 2819.25 606.07 2819.28 595.36L2819.24 610.53C2819.21 621.24 2826.28 631.96 2840.43 640.14L2972.46 716.37C3000.59 732.61 3046.03 732.61 3073.98 716.37L3205.15 640.14C3219.03 632.07 3225.98 621.52 3226.01 610.94L3226.05 595.77C3226.02 606.34 3219.07 616.9 3205.19 624.97Z" stroke-width="0" fill="#FF695B"/><path d="M3204.86 566.17C3232.99 582.41 3233.14 608.73 3205.19 624.97L3074.02 701.2C3046.08 717.44 3000.63 717.44 2972.5 701.2L2840.47 624.97C2812.34 608.73 2812.2 582.41 2840.14 566.17L2971.31 489.94C2999.25 473.7 3044.7 473.7 3072.83 489.94L3204.86 566.17Z" stroke-width="0" fill="#F2FAFF"/><g><path d="M3019.05 588.82C3020.39 592.4 3021.07 596.77 3021.08 601.93 3021.09 607.1 3020.44 612.23 3019.13 617.34 3017.81 622.45 3015.99 627.27 3013.65 631.79 3011.31 636.32 3008.52 640.4 3005.29 644.02 3002.06 647.65 2998.57 650.55 2994.83 652.71 2991.09 654.87 2987.5 656.06 2984.3 656.14 2981.09 656.23 2978.31 655.36 2975.95 653.55 2973.59 651.74 2971.74 649.04 2970.4 645.47 2969.06 641.89 2968.38 637.52 2968.37 632.36 2968.36 627.19 2969.01 622.06 2970.32 616.95 2971.64 611.84 2973.46 607.02 2975.8 602.5 2978.14 597.97 2980.9 593.89 2984.1 590.24 2987.29 586.6 2990.8 583.67 2994.61 581.46 2998.42 579.25 3001.85 578.19 3005.09 578.11 3008.33 578.05 3011.13 578.91 3013.49 580.73 3015.85 582.54 3017.7 585.24 3019.04 588.81ZM3006.4 619C3007.01 616.06 3007.3 613.03 3007.3 609.9 3007.3 606.77 3006.98 604.08 3006.36 601.8 3005.74 599.53 3004.86 597.78 3003.74 596.55 3002.61 595.32 3001.28 594.64 2999.74 594.51 2998.2 594.38 2996.52 594.84 2994.68 595.9 2992.84 596.96 2991.05 598.51 2989.53 600.4 2988 602.3 2986.68 604.52 2985.56 607.04 2984.44 609.57 2983.58 612.32 2982.97 615.29 2982.36 618.27 2982.07 621.32 2982.07 624.45 2982.07 627.58 2982.39 630.26 2983.01 632.49 2983.63 634.72 2984.5 636.45 2985.63 637.68 2986.76 638.91 2988.09 639.6 2989.63 639.72 2991.17 639.86 2992.88 639.37 2994.79 638.27 2996.7 637.17 2998.31 635.73 2999.84 633.82 3001.37 631.92 3002.69 629.7 3003.81 627.18 3004.93 624.65 3005.79 621.92 3006.4 618.98" stroke-width="0" fill="#C55146"/><path d="M3074.93 538.16 3074.97 552.48 3049.13 567.4 3046.22 587.78C3047.03 586.3 3048.24 584.78 3049.84 583.22 3051.43 581.67 3053.39 580.23 3055.71 578.89 3059.11 576.93 3062.28 575.74 3065.22 575.34 3068.15 574.94 3070.67 575.31 3072.79 576.43 3074.91 577.55 3076.57 579.42 3077.77 582.02 3078.97 584.62 3079.58 587.91 3079.59 591.9 3079.6 596.13 3078.95 600.35 3077.63 604.55 3076.31 608.77 3074.46 612.79 3072.09 616.63 3069.72 620.47 3066.89 624.03 3063.63 627.28 3060.37 630.54 3056.82 633.27 3053.01 635.47 3047.7 638.54 3042.94 639.99 3038.75 639.82 3034.55 639.66 3031.36 637.97 3029.17 634.77L3037.01 620.84C3038.92 622.79 3041.32 623.84 3044.18 623.99 3047.05 624.14 3050.01 623.33 3053.07 621.56 3056.75 619.44 3059.76 616.43 3062.1 612.52 3064.44 608.62 3065.61 604.56 3065.6 600.33 3065.59 596.27 3064.47 593.62 3062.25 592.39 3060.03 591.17 3057.21 591.53 3053.81 593.5 3051.56 594.8 3049.47 596.59 3047.53 598.89 3045.59 601.18 3044.05 603.69 3042.9 606.39L3030.95 613.29C3030.95 613.06 3031.08 612.1 3031.35 610.41 3031.61 608.73 3031.95 606.58 3032.35 603.95 3032.75 601.33 3033.18 598.41 3033.66 595.2 3034.12 591.99 3034.63 588.7 3035.17 585.34 3036.38 577.43 3037.71 568.59 3039.19 558.8L3074.94 538.16Z" stroke-width="0" fill="#C55146"/></g><text fill="#FF695B" font-family="Arial-BoldMT,Arial" font-weight="700" font-size="70" transform="translate(2897.31 987.57)"><tspan x="0" y="0">Indices</tspan></text></g><g><path d="M2482.75 1007.92C2505.17 1020.86 2505.29 1041.85 2483.01 1054.79L2378.45 1115.55C2356.18 1128.49 2319.95 1128.49 2297.53 1115.55L2192.29 1054.79C2169.87 1041.85 2169.75 1020.86 2192.03 1007.92L2296.59 947.16C2318.87 934.22 2355.09 934.22 2377.51 947.16L2482.75 1007.92Z" stroke-width="0" fill="#0097C8"/><path d="M2520.04 946.01 2388.87 1022.24C2360.93 1038.48 2315.48 1038.48 2287.35 1022.24L2155.32 946.01C2141.17 937.84 2134.1 927.11 2134.13 916.4L2134.09 931.57C2134.06 942.28 2141.13 953 2155.28 961.18L2287.31 1037.41C2315.44 1053.65 2360.88 1053.65 2388.83 1037.41L2520 961.18C2533.88 953.11 2540.83 942.56 2540.86 931.98L2540.9 916.81C2540.87 927.38 2533.92 937.94 2520.04 946.01Z" stroke-width="0" fill="#0097C8"/><path d="M2519.71 887.21C2547.84 903.45 2547.98 929.77 2520.04 946.01L2388.87 1022.24C2360.93 1038.48 2315.48 1038.48 2287.35 1022.24L2155.32 946.01C2127.19 929.77 2127.05 903.45 2154.99 887.21L2286.16 810.98C2314.1 794.74 2359.55 794.74 2387.68 810.98L2519.71 887.21Z" stroke-width="0" fill="#F6F4FF"/><g><path d="M2332.92 909.9C2334.26 913.48 2334.94 917.85 2334.95 923.01 2334.96 928.17 2334.31 933.31 2333 938.42 2331.68 943.53 2329.86 948.35 2327.52 952.87 2325.18 957.4 2322.39 961.48 2319.16 965.1 2315.93 968.73 2312.44 971.63 2308.7 973.79 2304.96 975.95 2301.37 977.14 2298.17 977.22 2294.96 977.31 2292.18 976.44 2289.82 974.63 2287.46 972.82 2285.61 970.12 2284.27 966.55 2282.93 962.97 2282.25 958.6 2282.24 953.44 2282.23 948.28 2282.88 943.14 2284.19 938.03 2285.51 932.92 2287.33 928.1 2289.67 923.58 2292.01 919.05 2294.77 914.97 2297.97 911.32 2301.16 907.67 2304.67 904.75 2308.48 902.54 2312.29 900.33 2315.72 899.26 2318.96 899.19 2322.2 899.12 2325 899.99 2327.36 901.81 2329.72 903.62 2331.57 906.32 2332.91 909.89ZM2320.27 940.08C2320.88 937.14 2321.17 934.11 2321.17 930.98 2321.17 927.85 2320.85 925.15 2320.23 922.88 2319.61 920.61 2318.74 918.86 2317.61 917.63 2316.48 916.4 2315.15 915.71 2313.61 915.59 2312.07 915.45 2310.39 915.92 2308.55 916.98 2306.71 918.04 2304.93 919.58 2303.4 921.48 2301.87 923.38 2300.55 925.6 2299.43 928.12 2298.31 930.65 2297.45 933.39 2296.84 936.37 2296.23 939.34 2295.94 942.4 2295.94 945.53 2295.94 948.66 2296.26 951.34 2296.88 953.57 2297.5 955.8 2298.37 957.53 2299.5 958.76 2300.63 959.99 2301.96 960.67 2303.5 960.8 2305.04 960.93 2306.75 960.45 2308.66 959.35 2310.57 958.25 2312.18 956.8 2313.71 954.9 2315.24 953 2316.56 950.78 2317.68 948.26 2318.8 945.73 2319.66 943 2320.27 940.06" stroke-width="0" fill="#00759B"/><path d="M2385.56 911.54 2394.55 906.35 2394.59 920.44 2385.6 925.63 2385.65 943.12 2371.96 951.02 2371.91 933.53 2342.08 950.75 2342.04 936.78 2376.12 866.54 2385.42 861.17 2385.56 911.53ZM2373.4 918.56 2373.33 892.03 2355.73 928.76 2373.4 918.56" stroke-width="0" fill="#00759B"/></g><text fill="#0097C8" font-family="Arial-BoldMT,Arial" font-weight="700" font-size="70" transform="translate(2149.74 1318.76)"><tspan x="0" y="0">Indicateurs</tspan></text></g><g><path d="M1817.78 686.88C1840.2 699.82 1840.32 720.81 1818.04 733.75L1713.48 794.51C1691.21 807.45 1654.98 807.45 1632.56 794.51L1527.32 733.75C1504.9 720.81 1504.78 699.82 1527.06 686.88L1631.62 626.12C1653.9 613.18 1690.12 613.18 1712.54 626.12L1817.78 686.88Z" stroke-width="0" fill="#FF4C5D"/><path d="M1855.07 624.97 1723.9 701.2C1695.96 717.44 1650.51 717.44 1622.38 701.2L1490.35 624.97C1476.2 616.8 1469.13 606.07 1469.16 595.36L1469.12 610.53C1469.09 621.24 1476.16 631.96 1490.31 640.14L1622.34 716.37C1650.47 732.61 1695.91 732.61 1723.86 716.37L1855.03 640.14C1868.91 632.07 1875.86 621.52 1875.89 610.94L1875.93 595.77C1875.9 606.34 1868.95 616.9 1855.07 624.97Z" stroke-width="0" fill="#FF4C5D"/><path d="M1854.74 566.17C1882.87 582.41 1883.02 608.73 1855.07 624.97L1723.9 701.2C1695.96 717.44 1650.51 717.44 1622.38 701.2L1490.35 624.97C1462.22 608.73 1462.08 582.41 1490.02 566.17L1621.19 489.94C1649.13 473.7 1694.58 473.7 1722.71 489.94L1854.74 566.17Z" stroke-width="0" fill="#F2FAFF"/><g><path d="M1668.58 588.71C1669.92 592.29 1670.6 596.66 1670.61 601.82 1670.62 606.98 1669.97 612.12 1668.66 617.23 1667.34 622.34 1665.52 627.16 1663.18 631.68 1660.84 636.21 1658.06 640.28 1654.82 643.91 1651.59 647.54 1648.1 650.43 1644.36 652.6 1640.62 654.77 1637.03 655.95 1633.83 656.03 1630.63 656.12 1627.84 655.25 1625.48 653.44 1623.12 651.63 1621.27 648.93 1619.93 645.36 1618.59 641.78 1617.91 637.41 1617.9 632.25 1617.89 627.09 1618.54 621.95 1619.85 616.84 1621.17 611.73 1622.99 606.91 1625.33 602.39 1627.67 597.86 1630.44 593.78 1633.63 590.13 1636.82 586.49 1640.33 583.56 1644.14 581.35 1647.89 579.19 1651.38 578.08 1654.62 578 1657.86 577.94 1660.66 578.8 1663.02 580.62 1665.38 582.43 1667.23 585.13 1668.57 588.7ZM1655.93 618.89C1656.54 615.95 1656.83 612.92 1656.83 609.79 1656.83 606.66 1656.51 603.97 1655.89 601.69 1655.27 599.42 1654.4 597.67 1653.27 596.44 1652.14 595.21 1650.81 594.53 1649.27 594.4 1647.73 594.27 1646.05 594.73 1644.21 595.79 1642.37 596.85 1640.58 598.4 1639.06 600.29 1637.53 602.19 1636.21 604.41 1635.09 606.93 1633.97 609.46 1633.11 612.21 1632.5 615.18 1631.89 618.16 1631.6 621.21 1631.61 624.34 1631.62 627.47 1631.93 630.15 1632.55 632.38 1633.17 634.61 1634.04 636.34 1635.17 637.57 1636.3 638.8 1637.63 639.49 1639.17 639.61 1640.71 639.75 1642.42 639.26 1644.33 638.16 1646.24 637.06 1647.85 635.62 1649.38 633.71 1650.91 631.81 1652.23 629.59 1653.35 627.07 1654.47 624.54 1655.33 621.81 1655.94 618.87" stroke-width="0" fill="#C53B48"/><path d="M1704.03 549.25C1707.5 547.24 1710.67 545.93 1713.53 545.29 1716.39 544.66 1718.87 544.64 1720.95 545.24 1723.03 545.85 1724.64 547.09 1725.77 548.98 1726.9 550.88 1727.47 553.39 1727.48 556.52 1727.48 558.87 1727.19 561.28 1726.58 563.74 1725.97 566.21 1725.09 568.64 1723.94 571.03 1722.79 573.42 1721.41 575.66 1719.82 577.76 1718.22 579.86 1716.47 581.65 1714.57 583.15 1718.79 581.58 1722.22 581.93 1724.86 584.21 1727.49 586.5 1728.82 590.38 1728.83 595.85 1728.84 599.53 1728.22 603.22 1726.97 606.92 1725.72 610.62 1723.95 614.17 1721.68 617.56 1719.41 620.95 1716.63 624.16 1713.37 627.18 1710.1 630.2 1706.43 632.89 1702.34 635.25 1697.16 638.24 1692.58 639.93 1688.59 640.31 1684.6 640.7 1681.27 639.82 1678.61 637.67L1686.34 622.04C1688.12 623.6 1690.23 624.38 1692.69 624.37 1695.15 624.37 1698.21 623.3 1701.89 621.17 1706.05 618.77 1709.21 616 1711.38 612.87 1713.55 609.74 1714.64 606.21 1714.62 602.3 1714.6 598.39 1713.34 595.83 1710.81 595.09 1708.28 594.36 1704.47 595.46 1699.36 598.41L1696.5 600.06 1696.47 588.32 1699.64 586.49C1703.86 584.05 1707.13 581.09 1709.44 577.6 1711.75 574.11 1712.9 570.69 1712.89 567.32 1712.88 563.95 1711.92 562.28 1710.01 561.81 1708.1 561.35 1705.61 562 1702.55 563.77 1699.49 565.54 1696.61 568.02 1694.13 571.1 1691.65 574.18 1689.63 577.66 1688.07 581.54L1679.46 575.46C1680.48 573.07 1681.83 570.67 1683.53 568.23 1685.23 565.8 1687.15 563.44 1689.29 561.14 1691.43 558.84 1693.76 556.68 1696.28 554.63 1698.79 552.59 1701.39 550.8 1704.04 549.27Z" stroke-width="0" fill="#C53B48"/></g><text fill="#FF4C5D" font-family="Arial-BoldMT,Arial" font-weight="700" font-size="70" transform="translate(1477.6 995.9)"><tspan x="0" y="0">Critères de </tspan><tspan x="27.29" y="84">jugement</tspan></text></g><g><path d="M1131.27 1007.92C1153.69 1020.86 1153.81 1041.85 1131.53 1054.79L1026.97 1115.55C1004.7 1128.49 968.47 1128.49 946.05 1115.55L840.81 1054.79C818.39 1041.85 818.27 1020.86 840.55 1007.92L945.11 947.16C967.39 934.22 1003.61 934.22 1026.03 947.16L1131.27 1007.92Z" stroke-width="0" fill="#3B5F85"/><path d="M1168.56 946.01 1037.39 1022.24C1009.45 1038.48 964 1038.48 935.87 1022.24L803.84 946.01C789.69 937.84 782.62 927.11 782.65 916.4L782.61 931.57C782.58 942.28 789.65 953 803.8 961.18L935.83 1037.41C963.96 1053.65 1009.4 1053.65 1037.35 1037.41L1168.52 961.18C1182.4 953.11 1189.35 942.56 1189.38 931.98L1189.42 916.81C1189.39 927.38 1182.44 937.94 1168.56 946.01Z" stroke-width="0" fill="#3B5F85"/><path d="M1168.23 887.21C1196.36 903.45 1196.5 929.77 1168.56 946.01L1037.39 1022.24C1009.45 1038.48 964 1038.48 935.87 1022.24L803.84 946.01C775.71 929.77 775.57 903.45 803.51 887.21L934.68 810.98C962.62 794.74 1008.07 794.74 1036.2 810.98L1168.23 887.21Z" stroke-width="0" fill="#F6F4FF"/><g><path d="M981.66 907.93C983 911.51 983.68 915.88 983.69 921.04 983.7 926.2 983.05 931.34 981.74 936.45 980.42 941.56 978.6 946.38 976.26 950.9 973.92 955.43 971.14 959.5 967.9 963.13 964.67 966.76 961.18 969.65 957.44 971.82 953.7 973.99 950.12 975.16 946.91 975.25 943.71 975.34 940.92 974.47 938.56 972.66 936.2 970.85 934.35 968.15 933.01 964.58 931.67 961 930.99 956.63 930.98 951.47 930.97 946.31 931.62 941.17 932.93 936.06 934.24 930.95 936.07 926.13 938.41 921.61 940.75 917.08 943.52 912.99 946.71 909.35 949.91 905.69 953.41 902.78 957.22 900.57 961.03 898.36 964.46 897.28 967.7 897.22 970.94 897.15 973.74 898.02 976.1 899.84 978.46 901.65 980.31 904.35 981.65 907.92ZM969.01 938.11C969.62 935.17 969.91 932.14 969.91 929.01 969.91 925.88 969.59 923.18 968.97 920.91 968.35 918.64 967.47 916.89 966.35 915.66 965.22 914.43 963.89 913.74 962.35 913.62 960.81 913.48 959.13 913.95 957.29 915.01 955.45 916.07 953.66 917.61 952.14 919.51 950.61 921.41 949.29 923.63 948.17 926.15 947.05 928.68 946.19 931.42 945.58 934.4 944.97 937.37 944.68 940.43 944.68 943.56 944.68 946.69 945 949.37 945.62 951.6 946.24 953.83 947.11 955.56 948.24 956.79 949.37 958.02 950.7 958.7 952.24 958.83 953.78 958.96 955.5 958.48 957.4 957.38 959.3 956.28 960.92 954.83 962.45 952.93 963.98 951.03 965.3 948.81 966.42 946.29 967.54 943.76 968.4 941.03 969.01 938.09" stroke-width="0" fill="#2E4967"/><path d="M1018.64 867C1022.11 864.99 1025.22 863.69 1027.94 863.1 1030.67 862.5 1032.97 862.55 1034.85 863.23 1036.73 863.91 1038.17 865.19 1039.16 867.09 1040.16 868.98 1040.66 871.38 1040.66 874.28 1040.66 877.02 1040.23 879.7 1039.35 882.32 1038.47 884.94 1037.36 887.47 1035.99 889.9 1034.63 892.33 1033.16 894.61 1031.56 896.75 1029.97 898.88 1028.42 900.86 1026.92 902.66 1025.7 904.15 1024.31 905.85 1022.74 907.78 1021.18 909.7 1019.63 911.71 1018.1 913.81 1016.57 915.91 1015.16 917.97 1013.87 920.01 1012.58 922.05 1011.6 923.89 1010.92 925.54L1041.87 907.67 1041.91 921.87 992.67 950.3C992.67 946.78 992.89 943.45 993.36 940.32 993.83 937.18 994.66 934.06 995.84 930.95 997.03 927.83 998.66 924.62 1000.72 921.31 1002.8 918 1005.43 914.4 1008.62 910.52 1011.41 907.18 1013.87 904.25 1016.01 901.72 1018.15 899.19 1019.94 896.96 1021.36 895.04 1022.79 893.11 1023.88 891.37 1024.62 889.81 1025.37 888.24 1025.74 886.71 1025.73 885.23 1025.73 882.88 1024.9 881.34 1023.26 880.6 1021.62 879.86 1019.27 880.38 1016.2 882.15 1014.57 883.09 1013.07 884.21 1011.71 885.51 1010.35 886.8 1009.08 888.22 1007.89 889.78 1006.7 891.32 1005.62 892.92 1004.63 894.54 1003.65 896.16 1002.75 897.8 1001.93 899.45L993.11 892.9C993.99 891.29 995.25 889.37 996.88 887.14 998.51 884.9 1000.44 882.57 1002.64 880.17 1004.85 877.75 1007.3 875.4 1009.99 873.11 1012.68 870.81 1015.55 868.78 1018.62 867.01Z" stroke-width="0" fill="#2E4967"/></g><text fill="#3B5F85" font-family="Arial-BoldMT,Arial" font-weight="700" font-size="70" transform="translate(787.64 1316.95)"><tspan x="0" y="0">Dimensions</tspan></text></g><g><path d="M466.3 686.88C488.72 699.82 488.84 720.81 466.56 733.75L362 794.51C339.73 807.45 303.5 807.45 281.08 794.51L175.84 733.75C153.42 720.81 153.3 699.82 175.58 686.88L280.14 626.12C302.42 613.18 338.64 613.18 361.06 626.12L466.3 686.88Z" stroke-width="0" fill="#E94E5F"/><path d="M503.59 624.97 372.42 701.2C344.48 717.44 299.03 717.44 270.9 701.2L138.87 624.97C124.72 616.8 117.65 606.07 117.68 595.36L117.64 610.53C117.61 621.24 124.68 631.96 138.83 640.14L270.86 716.37C298.99 732.61 344.43 732.61 372.38 716.37L503.55 640.14C517.43 632.07 524.38 621.52 524.41 610.94L524.45 595.77C524.42 606.34 517.47 616.9 503.59 624.97Z" stroke-width="0" fill="#E94E5F"/><path d="M503.26 566.17C531.39 582.41 531.54 608.73 503.59 624.97L372.42 701.2C344.48 717.44 299.03 717.44 270.9 701.2L138.87 624.97C110.74 608.73 110.6 582.41 138.54 566.17L269.71 489.94C297.65 473.7 343.1 473.7 371.23 489.94L503.26 566.17Z" stroke-width="0" fill="#F2FAFF"/><g><path d="M320.69 585.41C322.03 588.99 322.71 593.36 322.72 598.52 322.73 603.68 322.08 608.82 320.77 613.93 319.45 619.04 317.63 623.86 315.29 628.38 312.95 632.9 310.16 636.99 306.93 640.61 303.7 644.24 300.21 647.14 296.47 649.3 292.73 651.46 289.14 652.65 285.94 652.73 282.73 652.82 279.95 651.95 277.59 650.14 275.23 648.33 273.38 645.63 272.04 642.06 270.7 638.48 270.02 634.11 270.01 628.95 270 623.79 270.65 618.65 271.96 613.54 273.28 608.43 275.1 603.61 277.44 599.09 279.78 594.56 282.54 590.48 285.74 586.83 288.93 583.19 292.44 580.26 296.25 578.05 300.06 575.84 303.49 574.78 306.73 574.7 309.97 574.64 312.77 575.5 315.13 577.32 317.49 579.14 319.34 581.83 320.68 585.4ZM308.04 615.59C308.65 612.65 308.94 609.62 308.94 606.49 308.94 603.36 308.62 600.67 308 598.39 307.38 596.12 306.5 594.37 305.38 593.14 304.25 591.91 302.92 591.23 301.38 591.1 299.84 590.97 298.16 591.43 296.32 592.49 294.48 593.55 292.69 595.1 291.17 596.99 289.64 598.89 288.32 601.11 287.2 603.63 286.08 606.16 285.22 608.91 284.61 611.88 284 614.86 283.71 617.91 283.71 621.04 283.71 624.17 284.03 626.85 284.65 629.08 285.27 631.31 286.14 633.04 287.27 634.27 288.4 635.5 289.73 636.19 291.27 636.31 292.81 636.45 294.52 635.96 296.43 634.86 298.34 633.76 299.95 632.32 301.48 630.41 303.01 628.51 304.33 626.29 305.45 623.77 306.57 621.24 307.43 618.51 308.04 615.57" stroke-width="0" fill="#B43C49"/><path d="M362.67 542.77 362.82 595.59 375.79 588.1 375.83 602.3 334.36 626.25 334.32 612.05 348.83 603.67 348.73 568.1C348.12 569.39 347.15 570.91 345.83 572.66 344.5 574.41 343.06 576.16 341.5 577.93 339.93 579.7 338.32 581.34 336.65 582.84 334.98 584.36 333.5 585.48 332.21 586.23L332.17 571.56C333.4 570.85 334.89 569.54 336.66 567.61 338.43 565.69 340.16 563.61 341.86 561.37 343.55 559.14 345.03 557.05 346.29 555.11 347.54 553.17 348.34 551.75 348.68 550.85L362.68 542.77Z" stroke-width="0" fill="#B43C49"/></g><text fill="#E94E5F" font-family="Arial-BoldMT,Arial" font-weight="700" font-size="70" transform="translate(150.55 994.1)"><tspan x="0" y="0">Concepte</tspan><tspan x="-149.72" y="84">multidimensionnel</tspan></text></g><g><g><line x1="750.66" y1="245.81" x2="750.66" y2="653.25" stroke="#9929F2" stroke-width="7" stroke-linecap="round" stroke-linejoin="round" stroke-dasharray="0 0 12 16" fill="none"/><path d="M750.66 640.68 775.88 625.34 776.45 626.2 760.12 667.32C756.97 681.65 753.82 695.98 750.66 710.3 747.51 695.97 744.36 681.64 741.2 667.32L724.87 626.2 725.3 625.34 750.66 640.68Z" stroke-width="0" fill="#9929F2"/></g><text fill="#8C4A97" font-family="Arial-BoldMT,Arial" font-weight="700" font-size="56" transform="translate(643.26 109.35)"><tspan x="0" y="0">Analyse</tspan><tspan x="-63.77" y="67.2">conceptuelle</tspan></text></g><g><g><line x1="1181.03" y1="245.81" x2="1181.03" y2="653.25" stroke="#9929F2" stroke-width="7" stroke-linecap="round" stroke-linejoin="round" stroke-dasharray="0 0 12 16" fill="none"/><path d="M1181.03 640.68 1206.25 625.34 1206.82 626.2 1190.49 667.32C1187.34 681.65 1184.19 695.98 1181.03 710.3 1177.88 695.97 1174.73 681.64 1171.57 667.32L1155.24 626.2 1155.67 625.34 1181.03 640.68Z" stroke-width="0" fill="#9929F2"/></g><text fill="#8C4A97" font-family="Arial-BoldMT,Arial" font-weight="700" font-size="56" transform="translate(1036.37 109.35)"><tspan x="0" y="0">Connexion</tspan><tspan x="3.02" y="67.2">avec le DD</tspan></text></g><g><g><line x1="2122.34" y1="245.81" x2="2122.34" y2="653.25" stroke="#9929F2" stroke-width="7" stroke-linecap="round" stroke-linejoin="round" stroke-dasharray="0 0 12 16" fill="none"/><path d="M2122.34 640.68 2147.56 625.34 2148.13 626.2 2131.8 667.32C2128.65 681.65 2125.5 695.98 2122.34 710.3 2119.19 695.97 2116.04 681.64 2112.88 667.32L2096.55 626.2 2096.98 625.34 2122.34 640.68Z" stroke-width="0" fill="#9929F2"/></g><text fill="#8C4A97" font-family="Arial-BoldMT,Arial" font-weight="700" font-size="56" transform="translate(1948.12 75.75)"><tspan x="0" y="0">Identification</tspan><tspan x="20.17" y="67.2">et sélection</tspan><tspan x="-3.23" y="134.4">des variables</tspan></text></g><g><g><line x1="2552.71" y1="245.81" x2="2552.71" y2="653.25" stroke="#9929F2" stroke-width="7" stroke-linecap="round" stroke-linejoin="round" stroke-dasharray="0 0 12 16" fill="none"/><path d="M2552.71 640.68 2577.93 625.34 2578.5 626.2 2562.17 667.32C2559.02 681.65 2555.87 695.98 2552.71 710.3 2549.56 695.97 2546.41 681.64 2543.25 667.32L2526.92 626.2 2527.35 625.34 2552.71 640.68Z" stroke-width="0" fill="#9929F2"/></g><text fill="#8C4A97" font-family="Arial-BoldMT,Arial" font-weight="700" font-size="56" transform="translate(2404.93 142.95)"><tspan x="0" y="0">Agrégation</tspan></text></g></svg>